<svg width="54" height="54" viewBox="0 0 54 54" fill="none" xmlns="http://www.w3.org/2000/svg">
<circle cx="27" cy="27" r="27" fill="white"/>
<path d="M29.7726 40.3849C28.1558 40.6793 26.6353 40.6629 25.2113 40.3357C23.7872 40.0084 22.5056 39.413 21.3665 38.5493C20.2374 37.671 19.3091 36.5649 18.5816 35.2309L22.639 32.8279C23.4101 33.9116 24.3591 34.7462 25.4859 35.3316C26.6227 35.9024 27.8144 36.0743 29.061 35.8473C30.3817 35.6068 31.3802 35.138 32.0566 34.441C32.7454 33.7417 32.9931 32.8614 32.7998 31.7999C32.6672 31.0717 32.3226 30.5097 31.7659 30.1137C31.2193 29.7032 30.5196 29.3971 29.6667 29.1953C28.824 28.979 27.8786 28.7941 26.8305 28.6407C25.8217 28.4929 24.7999 28.3091 23.7653 28.0895C22.7307 27.8699 21.7605 27.5492 20.8549 27.1276C19.947 26.6936 19.1664 26.0834 18.5131 25.297C17.8721 24.5083 17.4359 23.4784 17.2044 22.2071C16.9729 20.9358 17.0999 19.7076 17.5854 18.5226C18.0709 17.3375 18.8982 16.3133 20.0672 15.4501C21.2462 14.5723 22.7553 13.9659 24.5943 13.631C26.1001 13.3568 27.4803 13.3732 28.7349 13.6803C29.9996 13.9728 31.0943 14.4875 32.0191 15.2245C32.944 15.9615 33.6556 16.8584 34.1541 17.9152L30.1186 20.123C29.6314 19.4084 28.9827 18.8571 28.1724 18.469C27.3722 18.0664 26.3674 17.9753 25.1578 18.1955C24.0223 18.4023 23.1803 18.7852 22.6317 19.3442C22.0832 19.9031 21.8831 20.5899 22.0314 21.4045C22.1326 21.9599 22.4289 22.3969 22.9205 22.7154C23.4222 23.0194 24.059 23.2605 24.8311 23.4387C25.6155 23.6146 26.4936 23.7799 27.4654 23.9344C28.5527 24.0935 29.6429 24.303 30.7359 24.563C31.839 24.8084 32.8613 25.1706 33.8029 25.6494C34.7568 26.126 35.5722 26.7873 36.2491 27.6331C36.9237 28.4667 37.3835 29.5561 37.6285 30.9014C37.9297 32.5553 37.7725 34.0377 37.1568 35.3484C36.5535 36.657 35.6107 37.7468 34.3284 38.6179C33.0438 39.4767 31.5253 40.0657 29.7726 40.3849Z" fill="#181922"/>
<path fill-rule="evenodd" clip-rule="evenodd" d="M38.5185 15.5816L32.1081 19.0396L29.7774 14.7191L38.5395 15.4176L38.5185 15.5816Z" fill="black"/>
<path fill-rule="evenodd" clip-rule="evenodd" d="M24.6674 36.267L15.7735 36.2408L15.4891 36.0893L22.123 32.0688L24.6674 36.267Z" fill="black"/>
</svg>
